<?xml version="1.0" encoding="UTF-8"?>
<svg version="1.1"
    xmlns="http://www.w3.org/2000/svg" width="1400" height="800">
    <path d="M0 0 C462 0 924 0 1400 0 C1400 264 1400 528 1400 800 C938 800 476 800 0 800 C0 536 0 272 0 0 Z " fill="#384152" transform="translate(0,0)"/>
    <path d="M0 0 C2.79234993 0.33521882 3.80162433 0.76612986 5.6496582 2.94482422 C6.19452881 3.8060791 6.73939941 4.66733398 7.30078125 5.5546875 C7.93612793 6.54380127 8.57147461 7.53291504 9.22607422 8.55200195 C10.25885498 10.19688599 10.25885498 10.19688599 11.3125 11.875 C12.05347498 13.03497796 12.79586338 14.19405408 13.53955078 15.35229492 C14.7387166 17.22044375 15.93682585 19.08920468 17.13079834 20.9606781 C21.65360495 28.04799037 26.28020384 35.06619302 30.90750122 42.08554077 C33.36871578 45.82048389 35.82482467 49.55878106 38.28125 53.296875 C38.76429092 54.03177658 39.24733185 54.76667816 39.74501038 55.52384949 C45.23065893 63.8705238 50.7091806 72.22188187 56.17651367 80.58056641 C56.93406051 81.73862085 57.69162875 82.89666129 58.44921875 84.0546875 C58.82016159 84.62172394 59.19110443 85.18876038 59.57328796 85.77297974 C61.94581016 89.39709288 64.32780503 93.01481652 66.71582031 96.6287384 C68.32538274 99.06546126 69.93158911 101.5043863 71.53741455 103.943573 C72.29793282 105.09678152 73.06007364 106.24892179 73.82391357 107.39993286 C74.86977336 108.97615439 75.90966025 110.55633426 76.94921875 112.13671875 C77.54049561 113.03092529 78.13177246 113.92513184 78.7409668 114.84643555 C80 117 80 117 80 119 C82.72043684 116.5355861 84.47134 113.81731584 86.37109375 110.6875 C87.34792114 109.08708862 87.34792114 109.08708862 88.34448242 107.4543457 C88.6861142 106.89043121 89.02774597 106.32651672 89.37973022 105.74551392 C91.16615685 102.79758271 92.96704615 99.85849521 94.765625 96.91796875 C95.12520798 96.32920456 95.48479095 95.74044037 95.85527039 95.13383484 C99.09345896 89.83515191 102.37494793 84.56494976 105.6875 79.3125 C106.15534912 78.56677734 106.62319824 77.82105469 107.10522461 77.05273438 C109.92648182 72.58792187 112.89310575 68.27127984 116 64 C119.05766342 65.32091709 120.69020511 66.53204419 122.55859375 69.28125 C123.01999756 69.94882324 123.48140137 70.61639648 123.95678711 71.30419922 C124.44542236 72.02881348 124.93405762 72.75342773 125.4375 73.5 C126.50929909 75.05545816 127.58225371 76.61012062 128.65625 78.1640625 C129.20796875 78.96618164 129.7596875 79.76830078 130.328125 80.59472656 C132.97183271 84.39814483 135.70748779 88.13332113 138.4375 91.875 C142.92662105 98.05073069 147.28143322 104.30350247 151.5625 110.625 C156.07230422 117.28117078 160.7559747 123.75913634 165.62353516 130.15722656 C169.50320179 135.27813086 173.16218803 140.52351007 176.77026367 145.83813477 C180.92444401 151.94026559 185.23772015 157.92105081 189.58569336 163.88623047 C190.60257837 165.28359559 191.61574626 166.68367614 192.62451172 168.08691406 C193.50717986 169.31456539 194.39871911 170.53591439 195.30126953 171.74902344 C196.44140625 173.3359375 196.44140625 173.3359375 198 176 C197.67 176.99 197.34 177.98 197 179 C96.02 179 -4.96 179 -109 179 C-107.87521493 172.25128961 -107.87521493 172.25128961 -105.5859375 168.6640625 C-104.82724365 167.45786255 -104.82724365 167.45786255 -104.05322266 166.22729492 C-103.22250244 164.93915894 -103.22250244 164.93915894 -102.375 163.625 C-101.5075415 162.25275269 -101.5075415 162.25275269 -100.62255859 160.8527832 C-99.38682709 158.89805361 -98.14729282 156.94572372 -96.90429688 154.99560547 C-94.40774825 151.06834243 -91.94581863 147.11998063 -89.484375 143.1706543 C-87.60214354 140.15082943 -85.71578408 137.13362222 -83.828125 134.1171875 C-83.19712891 133.10881836 -82.56613281 132.10044922 -81.91601562 131.06152344 C-80.63867188 129.02050781 -79.36132812 126.97949219 -78.08398438 124.93847656 C-71.00460656 113.62521141 -63.93992625 102.30352547 -56.92456055 90.95043945 C-52.05537956 83.07599668 -47.14565751 75.2271357 -42.234375 67.37890625 C-39.13875276 62.42977214 -36.05093839 57.47680189 -33 52.5 C-22.19005509 34.88119368 -11.13006581 17.41781341 0 0 Z " fill="#6A727F" transform="translate(655,320)"/>
    <path d="M0 0 C5.80827446 4.42833884 9.33861887 10.35693559 10.6015625 17.5546875 C11.0433166 25.99577255 8.02424587 32.40520251 2.62109375 38.75390625 C-4.16225982 44.35017294 -9.80600594 45.31807786 -18.484375 45.2109375 C-23.98163379 44.57201559 -27.82611332 42.54731671 -31.87890625 38.81640625 C-34.25676821 35.64268845 -36.14353562 32.37679766 -37.87890625 28.81640625 C-38.20890625 28.15640625 -38.53890625 27.49640625 -38.87890625 26.81640625 C-39.8124445 18.38788949 -38.80949672 11.80140942 -33.87890625 4.81640625 C-24.94706886 -5.43786337 -11.42384661 -7.19631086 0 0 Z " fill="#6A727F" transform="translate(785.87890625,304.18359375)"/>
</svg>
